<svg width="1024" height="1024" version="1.1" xmlns="http://www.w3.org/2000/svg" desc="Created with imagetracer.js version 1.2.6" ><path fill="rgb(30,71,113)" stroke="rgb(30,71,113)" stroke-width="1" opacity="0.9450980392156862" d="M 648.5 421 L 656.5 424 L 659 426.5 L 661 435.5 L 660 439.5 L 655.5 444 Q 651.5 447.5 642.5 446 L 635 440.5 Q 632.5 437 634 429.5 L 638.5 424 L 648.5 421 Z " /><path fill="rgb(30,71,113)" stroke="rgb(30,71,113)" stroke-width="1" opacity="0.9450980392156862" d="M 118.5 422 L 119.5 423 L 138.5 423 L 140 422.5 L 140 558.5 L 138.5 560 L 118.5 560 L 118 559.5 L 118.5 422 Z " /><path fill="rgb(30,71,113)" stroke="rgb(30,71,113)" stroke-width="1" opacity="0.9450980392156862" d="M 309.5 422 L 325.5 422 L 326.5 423 L 334 423 L 334 441.5 L 331.5 442 L 328.5 441 L 326.5 441 Q 313.3 439.3 308 445.5 L 306 449.5 L 306 461 L 334 461 L 334 477.5 L 332.5 479 L 311.5 479 L 308.5 478 L 305 479.5 L 306 480.5 L 306 558.5 L 304.5 560 L 283 560 L 283 479.5 L 279.5 479 L 277.5 479 L 265 479 L 265 461 L 283 461 L 283 446.5 Q 286 433.5 295.5 427 L 309.5 422 Z " /><path fill="rgb(30,71,113)" stroke="rgb(30,71,113)" stroke-width="1" opacity="0.9450980392156862" d="M 499.5 422 L 500.5 423 L 523 423 L 562 533 Q 565.3 534.3 564 529.5 L 590 457.5 L 590 454.5 L 599 431.5 L 600 425.5 L 602.5 422 L 603.5 423 L 625 423 L 577 556.5 L 574.5 560 L 550.5 560 L 549 558.5 L 498 423.5 L 499.5 422 Z " /><path fill="rgb(30,71,113)" stroke="rgb(30,71,113)" stroke-width="1" opacity="0.9450980392156862" d="M 215.5 458 L 216.5 459 L 226.5 459 L 233.5 461 L 247 472.5 Q 251.5 479 253 488.5 L 253 527.5 L 254 528.5 L 253 529.5 L 253 560 L 231 560 L 231 499.5 L 229 489.5 L 222.5 481 Q 216.7 476.4 204.5 478 L 194 483 L 189 491.5 L 187 500.5 L 187 560 L 165 560 L 165 551.5 L 164 549.5 L 165 544.5 L 165 542.5 L 165 526.5 L 164 525.5 L 165 520.5 L 164 516.5 L 165 513.5 L 165 509.5 Q 166.5 504 164 502.5 Q 166.3 501.2 165 496.5 L 164 492.5 L 165 488.5 L 164 486.5 Q 166.3 485.2 165 480.5 L 164 477.5 L 165 474.5 L 164 468.5 L 165 463.5 L 164 461 L 174.5 461 L 175.5 460 L 176.5 461 L 187 461 L 187.5 473 L 195.5 464 L 203.5 460 L 214.5 459 L 215.5 458 Z " /><path fill="rgb(30,71,113)" stroke="rgb(30,71,113)" stroke-width="1" opacity="0.9450980392156862" d="M 384.5 459 L 400.5 459 L 402 460.5 L 402 479 L 390.5 479 L 388.5 479 Q 377.3 478.8 373 485.5 L 368 496.5 L 368 558.5 L 366.5 560 L 345.5 560 L 345 559.5 L 345 461 L 364.5 461 L 365.5 460 L 368 461 Q 366 464.1 367 471 Q 369.7 472.1 369 469.5 Q 374.3 461.8 384.5 459 Z " /><path fill="rgb(30,71,113)" stroke="rgb(30,71,113)" stroke-width="1" opacity="0.9450980392156862" d="M 445.5 459 Q 478 455.5 490 472.5 L 495 481.5 L 497 489.5 L 497 557.5 L 498 558.5 L 496.5 560 L 475.5 560 Q 473 559 474 554.5 L 475 552.5 L 473.5 551 L 468.5 556 L 453.5 562 L 439.5 562 Q 424.2 559.3 417 548.5 L 413 540.5 L 412 529.5 L 415 518.5 L 424.5 508 L 431.5 504 L 446.5 500 L 474 499 L 474 489.5 L 468.5 481 Q 462.9 476.6 452.5 477 L 444.5 479 L 439 484.5 L 438 490 L 416 489 Q 417.1 472.9 428.5 466 L 437.5 461 L 445.5 459 Z M 469 514 L 468 515 L 449 516 L 440 520 L 436 525 L 435 529 L 435 533 L 438 539 L 443 542 L 450 544 L 461 543 L 470 538 L 474 531 L 474 515 Q 474 513 469 514 Z " /><path fill="rgb(30,71,113)" stroke="rgb(30,71,113)" stroke-width="1" opacity="0.9450980392156862" d="M 715.5 459 Q 748.3 456.2 760 474.5 Q 766.6 482.4 769 494.5 L 770 516 L 701.5 516 L 701 516.5 L 701 523.5 Q 703.4 533.6 710.5 539 Q 717.5 545 732.5 543 Q 741.5 540.5 746 533.5 L 747.5 531 L 770 531.5 Q 765.9 546.4 754.5 554 Q 741.8 563.8 717.5 562 L 705.5 559 L 690 548.5 Q 681 539 678 523.5 L 678 499.5 Q 681.6 477.6 696.5 467 L 702.5 463 L 715.5 459 Z M 722 477 L 711 481 L 704 489 L 701 500 L 705 501 L 727 501 L 729 501 L 747 501 L 748 500 Q 747 489 741 484 Q 735 477 722 477 Z " /><path fill="rgb(30,71,113)" stroke="rgb(30,71,113)" stroke-width="1" opacity="0.9450980392156862" d="M 777.5 460 L 778.5 461 L 798.5 461 L 800 462.5 L 817.5 530 L 834 478.5 L 837 465.5 L 839.5 461 Q 845 462.5 846.5 460 Q 847.8 462.2 852.5 461 L 856.5 461 Q 860.3 459.8 859 463.5 L 879.5 531 L 896 467.5 L 896 463.5 L 898.5 460 L 900.5 461 L 902.5 461 L 919.5 461 L 920 463.5 L 913 484.5 L 894 555.5 L 891.5 560 L 869.5 560 L 869 558.5 L 854 512.5 L 851 499.5 L 848.5 495 L 834 538.5 L 829 558.5 L 827.5 560 L 806.5 560 L 806 558.5 L 776 461.5 L 777.5 460 Z " /><path fill="rgb(30,71,113)" stroke="rgb(30,71,113)" stroke-width="1" opacity="0.9450980392156862" d="M 638 461 L 659.5 461 L 660 461.5 L 660 560 L 638.5 560 L 638 559.5 L 638 461 Z " /><path fill="rgb(0,0,0)" stroke="rgb(0,0,0)" stroke-width="1" opacity="0" d="M 0 0 L 1024 0 L 1024 1024 L 0 1024 L 0 0 Z M 649 421 L 639 424 L 634 430 Q 633 437 635 441 L 643 446 Q 652 448 656 444 L 660 440 L 661 436 L 659 427 L 657 424 L 649 421 Z M 119 422 L 118 560 L 119 560 L 139 560 L 140 559 L 140 423 L 139 423 L 120 423 L 119 422 Z M 310 422 L 296 427 Q 286 433 283 447 L 283 461 L 265 461 L 265 479 L 278 479 L 280 479 L 283 480 L 283 560 L 305 560 L 306 559 L 306 481 L 305 480 L 309 478 L 312 479 L 333 479 L 334 478 L 334 461 L 306 461 L 306 450 L 308 446 Q 313 439 327 441 L 329 441 L 332 442 L 334 442 L 334 423 L 327 423 L 326 422 L 310 422 Z M 500 422 L 498 424 L 549 559 L 551 560 L 575 560 L 577 557 L 625 423 L 604 423 L 603 422 L 600 426 L 599 432 L 590 455 L 590 458 L 564 530 Q 565 534 562 533 L 523 423 L 501 423 L 500 422 Z M 216 458 L 215 459 L 204 460 L 196 464 L 188 473 L 187 461 L 177 461 L 176 460 L 175 461 L 164 461 L 165 464 L 164 469 L 165 475 L 164 478 L 165 481 Q 166 485 164 487 L 165 489 L 164 493 L 165 497 Q 166 501 164 503 Q 167 504 165 510 L 165 514 L 164 517 L 165 521 L 164 526 L 165 527 L 165 543 L 165 545 L 164 550 L 165 552 L 165 560 L 187 560 L 187 501 L 189 492 L 194 483 L 205 478 Q 217 476 223 481 L 229 490 L 231 500 L 231 560 L 253 560 L 253 530 L 254 529 L 253 528 L 253 489 Q 251 479 247 473 L 234 461 L 227 459 L 217 459 L 216 458 Z M 385 459 Q 374 462 369 470 Q 370 472 367 471 Q 366 464 368 461 L 366 460 L 365 461 L 345 461 L 345 560 L 346 560 L 367 560 L 368 559 L 368 497 L 373 486 Q 377 479 389 479 L 391 479 L 402 479 L 402 461 L 401 459 L 385 459 Z M 446 459 L 438 461 L 429 466 Q 417 473 416 489 L 438 490 L 439 485 L 445 479 L 453 477 Q 463 477 469 481 L 474 490 L 474 499 L 447 500 L 432 504 L 425 508 L 415 519 L 412 530 L 413 541 L 417 549 Q 424 559 440 562 L 454 562 L 469 556 L 474 551 L 475 553 L 474 555 Q 473 559 476 560 L 497 560 L 498 559 L 497 558 L 497 490 L 495 482 L 490 473 Q 478 456 446 459 Z M 716 459 L 703 463 L 697 467 Q 682 478 678 500 L 678 524 Q 681 539 690 549 L 706 559 L 718 562 Q 742 564 755 554 Q 766 546 770 532 L 748 531 L 746 534 Q 742 541 733 543 Q 718 545 711 539 Q 703 534 701 524 L 701 517 L 702 516 L 770 516 L 769 495 Q 767 482 760 475 Q 748 456 716 459 Z M 778 460 L 776 462 L 806 559 L 807 560 L 828 560 L 829 559 L 834 539 L 849 495 L 851 500 L 854 513 L 869 559 L 870 560 L 892 560 L 894 556 L 913 485 L 920 464 L 920 461 L 903 461 L 901 461 L 899 460 L 896 464 L 896 468 L 880 531 L 859 464 Q 860 460 857 461 L 853 461 Q 848 462 847 460 Q 845 463 840 461 L 837 466 L 834 479 L 818 530 L 800 463 L 799 461 L 779 461 L 778 460 Z M 638 461 L 638 560 L 639 560 L 660 560 L 660 462 L 660 461 L 638 461 Z " /><path fill="rgb(0,0,0)" stroke="rgb(0,0,0)" stroke-width="1" opacity="0" d="M 721.5 477 Q 734.8 476.7 741 483.5 Q 746.6 489.4 748 499.5 L 746.5 501 L 728.5 501 L 726.5 501 L 704.5 501 L 701 500 L 704 488.5 L 710.5 481 L 721.5 477 Z " /><path fill="rgb(0,0,0)" stroke="rgb(0,0,0)" stroke-width="1" opacity="0" d="M 468.5 514 Q 473.9 513.4 474 514.5 L 474 530.5 L 470 538 L 460.5 543 L 449.5 544 L 442.5 542 L 438 538.5 L 435 532.5 L 435 528.5 L 436 524.5 L 439.5 520 L 448.5 516 L 467.5 515 L 468.5 514 Z " /></svg>